<mxfile host="Electron" modified="2023-08-19T23:49:26.956Z" agent="Mozilla/5.0 (Windows NT 10.0; Win64; x64) AppleWebKit/537.36 (KHTML, like Gecko) draw.io/21.6.8 Chrome/114.0.5735.289 Electron/25.5.0 Safari/537.36" etag="64M4xQ76sP0zl61R2wTH" version="21.6.8" type="device">
  <diagram name="Страница — 1" id="s434RWu2uvfjdOMgeDoQ">
    <mxGraphModel dx="1540" dy="731" grid="1" gridSize="10" guides="1" tooltips="1" connect="1" arrows="1" fold="1" page="1" pageScale="1" pageWidth="827" pageHeight="1169" math="0" shadow="0">
      <root>
        <mxCell id="0" />
        <mxCell id="1" parent="0" />
        <mxCell id="d24N3o7evqY5tlvTbPBX-37" value="" style="edgeStyle=orthogonalEdgeStyle;rounded=0;orthogonalLoop=1;jettySize=auto;html=1;" edge="1" parent="1" source="d24N3o7evqY5tlvTbPBX-10" target="d24N3o7evqY5tlvTbPBX-11">
          <mxGeometry relative="1" as="geometry" />
        </mxCell>
        <mxCell id="d24N3o7evqY5tlvTbPBX-10" value="client" style="shape=umlActor;verticalLabelPosition=bottom;verticalAlign=top;html=1;" vertex="1" parent="1">
          <mxGeometry x="20" y="540" width="30" height="60" as="geometry" />
        </mxCell>
        <mxCell id="d24N3o7evqY5tlvTbPBX-38" style="edgeStyle=orthogonalEdgeStyle;rounded=0;orthogonalLoop=1;jettySize=auto;html=1;exitX=1;exitY=0.5;exitDx=0;exitDy=0;entryX=0;entryY=0.5;entryDx=0;entryDy=0;" edge="1" parent="1" source="d24N3o7evqY5tlvTbPBX-11" target="d24N3o7evqY5tlvTbPBX-25">
          <mxGeometry relative="1" as="geometry" />
        </mxCell>
        <mxCell id="d24N3o7evqY5tlvTbPBX-11" value="Заказ на сайте" style="ellipse;whiteSpace=wrap;html=1;" vertex="1" parent="1">
          <mxGeometry x="80" y="555" width="120" height="30" as="geometry" />
        </mxCell>
        <mxCell id="d24N3o7evqY5tlvTbPBX-16" style="edgeStyle=orthogonalEdgeStyle;rounded=0;orthogonalLoop=1;jettySize=auto;html=1;exitX=0.5;exitY=1;exitDx=0;exitDy=0;" edge="1" parent="1" source="d24N3o7evqY5tlvTbPBX-11" target="d24N3o7evqY5tlvTbPBX-11">
          <mxGeometry relative="1" as="geometry" />
        </mxCell>
        <mxCell id="d24N3o7evqY5tlvTbPBX-51" value="" style="edgeStyle=orthogonalEdgeStyle;rounded=0;orthogonalLoop=1;jettySize=auto;html=1;" edge="1" parent="1" source="d24N3o7evqY5tlvTbPBX-17" target="d24N3o7evqY5tlvTbPBX-34">
          <mxGeometry relative="1" as="geometry" />
        </mxCell>
        <mxCell id="d24N3o7evqY5tlvTbPBX-17" value="Просмотр меню" style="ellipse;whiteSpace=wrap;html=1;" vertex="1" parent="1">
          <mxGeometry x="80" y="480" width="120" height="30" as="geometry" />
        </mxCell>
        <mxCell id="d24N3o7evqY5tlvTbPBX-53" value="" style="edgeStyle=orthogonalEdgeStyle;rounded=0;orthogonalLoop=1;jettySize=auto;html=1;" edge="1" parent="1" source="d24N3o7evqY5tlvTbPBX-18" target="d24N3o7evqY5tlvTbPBX-50">
          <mxGeometry relative="1" as="geometry" />
        </mxCell>
        <mxCell id="d24N3o7evqY5tlvTbPBX-18" value="Регистрация/Авторизация" style="ellipse;whiteSpace=wrap;html=1;" vertex="1" parent="1">
          <mxGeometry x="80" y="340" width="120" height="30" as="geometry" />
        </mxCell>
        <mxCell id="d24N3o7evqY5tlvTbPBX-19" value="Обращение в поддержку" style="ellipse;whiteSpace=wrap;html=1;" vertex="1" parent="1">
          <mxGeometry x="80" y="200" width="120" height="30" as="geometry" />
        </mxCell>
        <mxCell id="d24N3o7evqY5tlvTbPBX-52" value="" style="edgeStyle=orthogonalEdgeStyle;rounded=0;orthogonalLoop=1;jettySize=auto;html=1;" edge="1" parent="1" source="d24N3o7evqY5tlvTbPBX-20" target="d24N3o7evqY5tlvTbPBX-27">
          <mxGeometry relative="1" as="geometry" />
        </mxCell>
        <mxCell id="d24N3o7evqY5tlvTbPBX-20" value="Просмотр доставки" style="ellipse;whiteSpace=wrap;html=1;" vertex="1" parent="1">
          <mxGeometry x="80" y="410" width="120" height="30" as="geometry" />
        </mxCell>
        <mxCell id="d24N3o7evqY5tlvTbPBX-21" value="Просмотр сайта" style="ellipse;whiteSpace=wrap;html=1;" vertex="1" parent="1">
          <mxGeometry x="80" y="270" width="120" height="30" as="geometry" />
        </mxCell>
        <mxCell id="d24N3o7evqY5tlvTbPBX-22" value="Заказ по звонку" style="ellipse;whiteSpace=wrap;html=1;" vertex="1" parent="1">
          <mxGeometry x="80" y="830" width="120" height="30" as="geometry" />
        </mxCell>
        <mxCell id="d24N3o7evqY5tlvTbPBX-23" value="Отмена заказа" style="ellipse;whiteSpace=wrap;html=1;" vertex="1" parent="1">
          <mxGeometry x="80" y="700" width="120" height="30" as="geometry" />
        </mxCell>
        <mxCell id="d24N3o7evqY5tlvTbPBX-24" value="Подтверждение заказа" style="ellipse;whiteSpace=wrap;html=1;" vertex="1" parent="1">
          <mxGeometry x="80" y="630" width="120" height="30" as="geometry" />
        </mxCell>
        <mxCell id="d24N3o7evqY5tlvTbPBX-56" value="" style="edgeStyle=orthogonalEdgeStyle;rounded=0;orthogonalLoop=1;jettySize=auto;html=1;" edge="1" parent="1" source="d24N3o7evqY5tlvTbPBX-25" target="d24N3o7evqY5tlvTbPBX-26">
          <mxGeometry relative="1" as="geometry" />
        </mxCell>
        <mxCell id="d24N3o7evqY5tlvTbPBX-25" value="Добавление в корзину" style="ellipse;whiteSpace=wrap;html=1;" vertex="1" parent="1">
          <mxGeometry x="240" y="555" width="120" height="30" as="geometry" />
        </mxCell>
        <mxCell id="d24N3o7evqY5tlvTbPBX-55" value="" style="edgeStyle=orthogonalEdgeStyle;rounded=0;orthogonalLoop=1;jettySize=auto;html=1;" edge="1" parent="1" source="d24N3o7evqY5tlvTbPBX-26" target="d24N3o7evqY5tlvTbPBX-28">
          <mxGeometry relative="1" as="geometry" />
        </mxCell>
        <mxCell id="d24N3o7evqY5tlvTbPBX-26" value="Выбор оплаты" style="ellipse;whiteSpace=wrap;html=1;" vertex="1" parent="1">
          <mxGeometry x="400" y="555" width="120" height="30" as="geometry" />
        </mxCell>
        <mxCell id="d24N3o7evqY5tlvTbPBX-27" value="Выбор доставки" style="ellipse;whiteSpace=wrap;html=1;" vertex="1" parent="1">
          <mxGeometry x="240" y="410" width="120" height="30" as="geometry" />
        </mxCell>
        <mxCell id="d24N3o7evqY5tlvTbPBX-57" style="edgeStyle=orthogonalEdgeStyle;rounded=0;orthogonalLoop=1;jettySize=auto;html=1;entryX=1;entryY=0.5;entryDx=0;entryDy=0;" edge="1" parent="1" source="d24N3o7evqY5tlvTbPBX-28" target="d24N3o7evqY5tlvTbPBX-24">
          <mxGeometry relative="1" as="geometry" />
        </mxCell>
        <mxCell id="d24N3o7evqY5tlvTbPBX-28" value="Оплата" style="ellipse;whiteSpace=wrap;html=1;" vertex="1" parent="1">
          <mxGeometry x="400" y="630" width="120" height="30" as="geometry" />
        </mxCell>
        <mxCell id="d24N3o7evqY5tlvTbPBX-29" value="Оценка качества" style="ellipse;whiteSpace=wrap;html=1;" vertex="1" parent="1">
          <mxGeometry x="80" y="760" width="120" height="30" as="geometry" />
        </mxCell>
        <mxCell id="d24N3o7evqY5tlvTbPBX-30" value="staff" style="shape=umlActor;verticalLabelPosition=bottom;verticalAlign=top;html=1;strokeColor=#0000CC;" vertex="1" parent="1">
          <mxGeometry x="20" y="150" width="30" height="60" as="geometry" />
        </mxCell>
        <mxCell id="d24N3o7evqY5tlvTbPBX-33" value="Выбор скидки" style="ellipse;whiteSpace=wrap;html=1;" vertex="1" parent="1">
          <mxGeometry x="400" y="340" width="120" height="30" as="geometry" />
        </mxCell>
        <mxCell id="d24N3o7evqY5tlvTbPBX-59" value="" style="edgeStyle=orthogonalEdgeStyle;rounded=0;orthogonalLoop=1;jettySize=auto;html=1;" edge="1" parent="1" source="d24N3o7evqY5tlvTbPBX-34" target="d24N3o7evqY5tlvTbPBX-25">
          <mxGeometry relative="1" as="geometry" />
        </mxCell>
        <mxCell id="d24N3o7evqY5tlvTbPBX-34" value="Выбор акции" style="ellipse;whiteSpace=wrap;html=1;" vertex="1" parent="1">
          <mxGeometry x="240" y="480" width="120" height="30" as="geometry" />
        </mxCell>
        <mxCell id="d24N3o7evqY5tlvTbPBX-40" value="" style="endArrow=classic;html=1;rounded=0;" edge="1" parent="1">
          <mxGeometry width="50" height="50" relative="1" as="geometry">
            <mxPoint x="40" y="530" as="sourcePoint" />
            <mxPoint x="80" y="500" as="targetPoint" />
            <Array as="points" />
          </mxGeometry>
        </mxCell>
        <mxCell id="d24N3o7evqY5tlvTbPBX-41" value="" style="endArrow=classic;html=1;rounded=0;" edge="1" parent="1">
          <mxGeometry width="50" height="50" relative="1" as="geometry">
            <mxPoint x="40" y="530" as="sourcePoint" />
            <mxPoint x="80" y="430" as="targetPoint" />
            <Array as="points" />
          </mxGeometry>
        </mxCell>
        <mxCell id="d24N3o7evqY5tlvTbPBX-42" value="" style="endArrow=classic;html=1;rounded=0;" edge="1" parent="1">
          <mxGeometry width="50" height="50" relative="1" as="geometry">
            <mxPoint x="40" y="530" as="sourcePoint" />
            <mxPoint x="80" y="360" as="targetPoint" />
          </mxGeometry>
        </mxCell>
        <mxCell id="d24N3o7evqY5tlvTbPBX-43" value="" style="endArrow=classic;html=1;rounded=0;" edge="1" parent="1">
          <mxGeometry width="50" height="50" relative="1" as="geometry">
            <mxPoint x="40" y="530" as="sourcePoint" />
            <mxPoint x="80" y="290" as="targetPoint" />
          </mxGeometry>
        </mxCell>
        <mxCell id="d24N3o7evqY5tlvTbPBX-44" value="" style="endArrow=classic;html=1;rounded=0;" edge="1" parent="1">
          <mxGeometry width="50" height="50" relative="1" as="geometry">
            <mxPoint x="40" y="530" as="sourcePoint" />
            <mxPoint x="80" y="220" as="targetPoint" />
          </mxGeometry>
        </mxCell>
        <mxCell id="d24N3o7evqY5tlvTbPBX-45" value="" style="endArrow=classic;html=1;rounded=0;exitX=0;exitY=0.5;exitDx=0;exitDy=0;" edge="1" parent="1" source="d24N3o7evqY5tlvTbPBX-24">
          <mxGeometry width="50" height="50" relative="1" as="geometry">
            <mxPoint x="80" y="620" as="sourcePoint" />
            <mxPoint x="50" y="600" as="targetPoint" />
            <Array as="points" />
          </mxGeometry>
        </mxCell>
        <mxCell id="d24N3o7evqY5tlvTbPBX-46" value="" style="endArrow=classic;html=1;rounded=0;exitX=0;exitY=0.5;exitDx=0;exitDy=0;" edge="1" parent="1" source="d24N3o7evqY5tlvTbPBX-22">
          <mxGeometry width="50" height="50" relative="1" as="geometry">
            <mxPoint x="70" y="930" as="sourcePoint" />
            <mxPoint x="10" y="210" as="targetPoint" />
            <Array as="points">
              <mxPoint x="10" y="845" />
              <mxPoint x="10" y="680" />
            </Array>
          </mxGeometry>
        </mxCell>
        <mxCell id="d24N3o7evqY5tlvTbPBX-47" value="" style="endArrow=classic;html=1;rounded=0;entryX=0;entryY=0.5;entryDx=0;entryDy=0;" edge="1" parent="1" target="d24N3o7evqY5tlvTbPBX-23">
          <mxGeometry width="50" height="50" relative="1" as="geometry">
            <mxPoint x="40" y="625" as="sourcePoint" />
            <mxPoint x="90" y="665" as="targetPoint" />
          </mxGeometry>
        </mxCell>
        <mxCell id="d24N3o7evqY5tlvTbPBX-48" value="" style="endArrow=classic;html=1;rounded=0;entryX=0;entryY=0.5;entryDx=0;entryDy=0;" edge="1" parent="1" target="d24N3o7evqY5tlvTbPBX-29">
          <mxGeometry width="50" height="50" relative="1" as="geometry">
            <mxPoint x="40" y="630" as="sourcePoint" />
            <mxPoint x="90" y="780" as="targetPoint" />
          </mxGeometry>
        </mxCell>
        <mxCell id="d24N3o7evqY5tlvTbPBX-49" value="" style="endArrow=classic;html=1;rounded=0;entryX=1;entryY=0;entryDx=0;entryDy=0;strokeColor=#0000CC;" edge="1" parent="1" target="d24N3o7evqY5tlvTbPBX-18">
          <mxGeometry width="50" height="50" relative="1" as="geometry">
            <mxPoint x="50" y="180" as="sourcePoint" />
            <mxPoint x="220" y="320" as="targetPoint" />
            <Array as="points">
              <mxPoint x="210" y="180" />
              <mxPoint x="210" y="320" />
            </Array>
          </mxGeometry>
        </mxCell>
        <mxCell id="d24N3o7evqY5tlvTbPBX-66" value="" style="edgeStyle=orthogonalEdgeStyle;rounded=0;orthogonalLoop=1;jettySize=auto;html=1;" edge="1" parent="1" source="d24N3o7evqY5tlvTbPBX-50" target="d24N3o7evqY5tlvTbPBX-33">
          <mxGeometry relative="1" as="geometry" />
        </mxCell>
        <mxCell id="d24N3o7evqY5tlvTbPBX-50" value="Просмотр/ Редактирование" style="ellipse;whiteSpace=wrap;html=1;" vertex="1" parent="1">
          <mxGeometry x="240" y="340" width="120" height="30" as="geometry" />
        </mxCell>
        <mxCell id="d24N3o7evqY5tlvTbPBX-60" value="" style="endArrow=classic;html=1;rounded=0;exitX=0.5;exitY=1;exitDx=0;exitDy=0;entryX=1;entryY=0;entryDx=0;entryDy=0;" edge="1" parent="1" source="d24N3o7evqY5tlvTbPBX-33" target="d24N3o7evqY5tlvTbPBX-25">
          <mxGeometry width="50" height="50" relative="1" as="geometry">
            <mxPoint x="390" y="520" as="sourcePoint" />
            <mxPoint x="440" y="470" as="targetPoint" />
          </mxGeometry>
        </mxCell>
        <mxCell id="d24N3o7evqY5tlvTbPBX-61" value="" style="endArrow=classic;html=1;rounded=0;entryX=1;entryY=0;entryDx=0;entryDy=0;strokeColor=#0000CC;" edge="1" parent="1" target="d24N3o7evqY5tlvTbPBX-25">
          <mxGeometry width="50" height="50" relative="1" as="geometry">
            <mxPoint x="210" y="180" as="sourcePoint" />
            <mxPoint x="540" y="510" as="targetPoint" />
            <Array as="points">
              <mxPoint x="540" y="180" />
              <mxPoint x="540" y="410" />
            </Array>
          </mxGeometry>
        </mxCell>
        <mxCell id="d24N3o7evqY5tlvTbPBX-62" value="" style="endArrow=classic;html=1;rounded=0;entryX=1;entryY=0;entryDx=0;entryDy=0;exitX=1;exitY=0.5;exitDx=0;exitDy=0;" edge="1" parent="1" source="d24N3o7evqY5tlvTbPBX-27" target="d24N3o7evqY5tlvTbPBX-25">
          <mxGeometry width="50" height="50" relative="1" as="geometry">
            <mxPoint x="360" y="430" as="sourcePoint" />
            <mxPoint x="410" y="370" as="targetPoint" />
            <Array as="points">
              <mxPoint x="400" y="425" />
            </Array>
          </mxGeometry>
        </mxCell>
        <mxCell id="d24N3o7evqY5tlvTbPBX-63" value="" style="endArrow=classic;html=1;rounded=0;entryX=1;entryY=0.5;entryDx=0;entryDy=0;strokeColor=#0000CC;" edge="1" parent="1" target="d24N3o7evqY5tlvTbPBX-27">
          <mxGeometry width="50" height="50" relative="1" as="geometry">
            <mxPoint x="380" y="180" as="sourcePoint" />
            <mxPoint x="440" y="300" as="targetPoint" />
            <Array as="points">
              <mxPoint x="380" y="320" />
            </Array>
          </mxGeometry>
        </mxCell>
        <mxCell id="d24N3o7evqY5tlvTbPBX-64" value="" style="endArrow=classic;html=1;rounded=0;" edge="1" parent="1">
          <mxGeometry width="50" height="50" relative="1" as="geometry">
            <mxPoint x="80" y="210" as="sourcePoint" />
            <mxPoint x="50" y="190" as="targetPoint" />
          </mxGeometry>
        </mxCell>
        <mxCell id="d24N3o7evqY5tlvTbPBX-65" value="" style="endArrow=classic;html=1;rounded=0;entryX=0;entryY=0.5;entryDx=0;entryDy=0;" edge="1" parent="1" target="d24N3o7evqY5tlvTbPBX-22">
          <mxGeometry width="50" height="50" relative="1" as="geometry">
            <mxPoint x="32" y="630" as="sourcePoint" />
            <mxPoint x="38" y="730" as="targetPoint" />
          </mxGeometry>
        </mxCell>
        <mxCell id="d24N3o7evqY5tlvTbPBX-67" value="&lt;h2&gt;Заказ Пиццы Use-Case&amp;nbsp;&lt;/h2&gt;" style="text;html=1;strokeColor=none;fillColor=none;align=center;verticalAlign=middle;whiteSpace=wrap;rounded=0;" vertex="1" parent="1">
          <mxGeometry x="100" y="120" width="400" height="30" as="geometry" />
        </mxCell>
      </root>
    </mxGraphModel>
  </diagram>
</mxfile>
